<mxfile host="app.diagrams.net" modified="2023-10-03T07:39:31.609Z" agent="Mozilla/5.0 (Windows NT 10.0; Win64; x64) AppleWebKit/537.36 (KHTML, like Gecko) Chrome/117.0.0.0 Safari/537.36 Edg/117.0.2045.47" version="22.0.1" etag="rMhftDLswbaB734UGG6C" type="github">
  <diagram name="第 1 页" id="ekDpJdJLpk0og-FMI9vL">
    <mxGraphModel>
      <root>
        <mxCell id="0" />
        <mxCell id="1" parent="0" />
      </root>
    </mxGraphModel>
  </diagram>
</mxfile>
